<?xml version="1.0" encoding="UTF-8" standalone="no"?><!-- Generator: Gravit.io --><svg xmlns="http://www.w3.org/2000/svg" xmlns:xlink="http://www.w3.org/1999/xlink" style="isolation:isolate" viewBox="0 0 100 100" width="100pt" height="100pt"><defs><clipPath id="_clipPath_RfJ1qYXGlsT98bMZzGP1UAm8hcg9we8b"><rect width="100" height="100"/></clipPath></defs><g clip-path="url(#_clipPath_RfJ1qYXGlsT98bMZzGP1UAm8hcg9we8b)"><g><g><defs><filter id="IL2y9hSCPC7TlVUXwo5nHnb2OCyvP92c" x="-200%" y="-200%" width="400%" height="400%" filterUnits="objectBoundingBox" color-interpolation-filters="sRGB"><feGaussianBlur xmlns="http://www.w3.org/2000/svg" in="SourceGraphic" stdDeviation="2.146804531419514"/><feOffset xmlns="http://www.w3.org/2000/svg" dx="0" dy="2" result="pf_100_offsetBlur"/><feFlood xmlns="http://www.w3.org/2000/svg" flood-color="#000000" flood-opacity="0.5"/><feComposite xmlns="http://www.w3.org/2000/svg" in2="pf_100_offsetBlur" operator="in" result="pf_100_dropShadow"/><feBlend xmlns="http://www.w3.org/2000/svg" in="SourceGraphic" in2="pf_100_dropShadow" mode="normal"/></filter></defs><g filter="url(#IL2y9hSCPC7TlVUXwo5nHnb2OCyvP92c)"><linearGradient id="_lgradient_1" x1="0.1464466094067262" y1="0.14644660940672627" x2="0.8535533905932737" y2="0.8535533905932737" gradientTransform="matrix(80,0,0,69.155,10,15.423)" gradientUnits="userSpaceOnUse"><stop offset="0%" stop-opacity="1" style="stop-color:rgb(60,68,76)"/><stop offset="100%" stop-opacity="1" style="stop-color:rgb(38,47,56)"/></linearGradient><path d=" M 60.228 15.423 L 13.123 15.423 C 11.4 15.423 10 16.822 10 18.546 L 10 81.454 C 10 83.178 11.4 84.577 13.123 84.577 L 86.877 84.577 C 88.6 84.577 90 83.178 90 81.454 L 90 30.396 C 90 28.672 88.6 27.272 86.877 27.272 L 63.352 27.272 L 63.352 18.546 C 63.352 16.822 61.952 15.423 60.228 15.423 Z " fill="url(#_lgradient_1)"/><clipPath id="_clipPath_lzRvIfkVAfnC8mQYyQBM2a0pwCm9h6Ka"><path d=" M 60.228 15.423 L 13.123 15.423 C 11.4 15.423 10 16.822 10 18.546 L 10 81.454 C 10 83.178 11.4 84.577 13.123 84.577 L 86.877 84.577 C 88.6 84.577 90 83.178 90 81.454 L 90 30.396 C 90 28.672 88.6 27.272 86.877 27.272 L 63.352 27.272 L 63.352 18.546 C 63.352 16.822 61.952 15.423 60.228 15.423 Z " fill="url(#_lgradient_1)"/></clipPath><g clip-path="url(#_clipPath_lzRvIfkVAfnC8mQYyQBM2a0pwCm9h6Ka)"><defs><filter id="7YnSeRXazpnkx9LyYpEm8T3TABfEOtKw" x="-200%" y="-200%" width="400%" height="400%" filterUnits="objectBoundingBox" color-interpolation-filters="sRGB"><feOffset xmlns="http://www.w3.org/2000/svg" in="SourceGraphic" dx="0" dy="-1"/><feGaussianBlur xmlns="http://www.w3.org/2000/svg" stdDeviation="1.2880827188517086" result="pf_100_offsetBlur"/><feComposite xmlns="http://www.w3.org/2000/svg" in="SourceGraphic" in2="pf_100_offsetBlur" result="pf_100_inverse" operator="out"/><feFlood xmlns="http://www.w3.org/2000/svg" flood-color="#000000" flood-opacity="0.3" result="pf_100_color"/><feComposite xmlns="http://www.w3.org/2000/svg" in="pf_100_color" in2="pf_100_inverse" operator="in" result="pf_100_shadow"/><feComposite xmlns="http://www.w3.org/2000/svg" in="pf_100_shadow" in2="SourceGraphic" operator="over"/></filter></defs><g filter="url(#7YnSeRXazpnkx9LyYpEm8T3TABfEOtKw)"><rect x="36.676" y="-18.905" width="48.728" height="46.177" transform="matrix(1,0,0,1,0,0)" fill="rgb(98,106,112)"/></g></g></g></g><g><defs><filter id="2OxCwsBou640CVMuYGfDkV9TyH5TJtdL" x="-200%" y="-200%" width="400%" height="400%" filterUnits="objectBoundingBox" color-interpolation-filters="sRGB"><feGaussianBlur xmlns="http://www.w3.org/2000/svg" in="SourceGraphic" stdDeviation="2.146804531419514"/><feOffset xmlns="http://www.w3.org/2000/svg" dx="0" dy="2" result="pf_100_offsetBlur"/><feFlood xmlns="http://www.w3.org/2000/svg" flood-color="#000000" flood-opacity="0.5"/><feComposite xmlns="http://www.w3.org/2000/svg" in2="pf_100_offsetBlur" operator="in" result="pf_100_dropShadow"/><feBlend xmlns="http://www.w3.org/2000/svg" in="SourceGraphic" in2="pf_100_dropShadow" mode="normal"/></filter></defs><g filter="url(#2OxCwsBou640CVMuYGfDkV9TyH5TJtdL)"><path d="M 47.189 67.271 L 73.916 67.271 C 75.007 67.271 75.893 68.157 75.893 69.249 L 75.893 72.941 C 75.893 74.033 75.007 74.919 73.916 74.919 L 47.189 74.919 C 46.097 74.919 45.211 74.033 45.211 72.941 L 45.211 69.249 C 45.211 68.157 46.097 67.271 47.189 67.271 Z" style="stroke:none;fill:#D7D9DA;stroke-miterlimit:10;"/></g><g><defs><filter id="Xa6gJHnUa8D9KN3rVJz6sLbQyeiqAt6E" x="-200%" y="-200%" width="400%" height="400%" filterUnits="objectBoundingBox" color-interpolation-filters="sRGB"><feGaussianBlur xmlns="http://www.w3.org/2000/svg" in="SourceGraphic" stdDeviation="2.146804531419514"/><feOffset xmlns="http://www.w3.org/2000/svg" dx="0" dy="2" result="pf_100_offsetBlur"/><feFlood xmlns="http://www.w3.org/2000/svg" flood-color="#000000" flood-opacity="0.5"/><feComposite xmlns="http://www.w3.org/2000/svg" in2="pf_100_offsetBlur" operator="in" result="pf_100_dropShadow"/><feBlend xmlns="http://www.w3.org/2000/svg" in="SourceGraphic" in2="pf_100_dropShadow" mode="normal"/></filter></defs><g filter="url(#Xa6gJHnUa8D9KN3rVJz6sLbQyeiqAt6E)"><path d="M 31.299 40.174 L 46.961 55.835 C 46.961 55.835 46.961 55.835 46.961 55.835 L 51.136 51.66 C 51.816 50.98 51.816 49.876 51.136 49.196 L 36.707 34.767 C 36.077 34.137 35.055 34.137 34.425 34.767 L 31.299 37.893 C 30.67 38.522 30.67 39.544 31.299 40.174 Z" style="stroke:none;fill:#A8ACAF;stroke-miterlimit:10;"/></g><defs><filter id="PgqeSmE9HeLFLLxIBfuRWHdqSGFevRMR" x="-200%" y="-200%" width="400%" height="400%" filterUnits="objectBoundingBox" color-interpolation-filters="sRGB"><feGaussianBlur xmlns="http://www.w3.org/2000/svg" in="SourceGraphic" stdDeviation="2.146804531419514"/><feOffset xmlns="http://www.w3.org/2000/svg" dx="0" dy="2" result="pf_100_offsetBlur"/><feFlood xmlns="http://www.w3.org/2000/svg" flood-color="#000000" flood-opacity="0.5"/><feComposite xmlns="http://www.w3.org/2000/svg" in2="pf_100_offsetBlur" operator="in" result="pf_100_dropShadow"/><feBlend xmlns="http://www.w3.org/2000/svg" in="SourceGraphic" in2="pf_100_dropShadow" mode="normal"/></filter></defs><g filter="url(#PgqeSmE9HeLFLLxIBfuRWHdqSGFevRMR)"><path d="M 45.68 46.301 L 23 68.981 C 22.293 69.688 22.293 70.836 23 71.543 L 25.846 74.388 C 26.553 75.095 27.7 75.095 28.407 74.388 L 51.087 51.709 C 51.794 51.002 51.794 49.854 51.087 49.147 L 48.241 46.301 C 47.535 45.594 46.387 45.594 45.68 46.301 Z" style="stroke:none;fill:#D7D9DA;stroke-miterlimit:10;"/></g></g></g></g></g></svg>